<?xml version="1.0" encoding="UTF-8"?>
<svg id="Layer_1" data-name="Layer 1" xmlns="http://www.w3.org/2000/svg" viewBox="0 0 1578.95 1578.95">
  <defs>
    <style>
      .cls-1 {
        fill: #252e65;
      }

      .cls-1, .cls-2, .cls-3 {
        stroke-width: 0px;
      }

      .cls-2 {
        fill: #6cbf57;
      }

      .cls-3 {
        fill: #fff;
      }
    </style>
  </defs>
  <circle class="cls-1" cx="789.47" cy="789.47" r="789.47"/>
  <path class="cls-3" d="M732.21,1521.04c-.43,0-.87-.02-1.31-.05l-1.38-.11c-173.61-14.24-336.89-90.17-459.83-213.81-121.55-122.24-196.62-283.46-211.38-453.94-.79-9.07,5.93-17.07,15.01-17.85,8.98-.8,17.06,5.93,17.85,15.01,14.09,162.79,85.79,316.76,201.91,433.53,117.41,118.08,273.35,190.59,439.09,204.19l1.32.1c9.08.72,15.86,8.66,15.14,17.73-.68,8.64-7.9,15.19-16.42,15.19ZM852.72,1520.61c-8.45,0-15.65-6.47-16.41-15.04-.8-9.07,5.91-17.07,14.98-17.87,162.58-14.31,316.32-86.1,432.87-202.16,117.87-117.36,190.26-273.18,203.85-438.75l.08-1.02c.74-9.08,8.74-15.81,17.77-15.1,9.08.74,15.84,8.7,15.1,17.77l-.08,1.05c-14.22,173.37-90.02,336.53-213.44,459.42-122.02,121.5-282.98,196.66-453.25,211.64-.49.04-.98.06-1.47.06ZM74.48,747.47c-.41,0-.83-.02-1.25-.05-9.05-.69-15.85-8.39-15.2-17.44.02-.17.06-.69.08-.86,14.2-173.15,90.09-336.4,213.65-459.32,122.17-121.53,283.3-196.63,453.71-211.46,9-.78,17.07,5.93,17.86,15,.79,9.07-5.93,17.07-15,17.86-162.73,14.16-316.61,85.89-433.31,201.99-118,117.39-190.48,273.29-204.08,438.98-.7,8.62-7.94,15.31-16.46,15.31ZM1504.13,743.04c-8.45,0-15.66-6.47-16.41-15.05-14.24-162.66-86-316.46-202.08-433.09-117.38-117.94-273.24-190.37-438.86-203.96l-.79-.06c-9.07-.79-15.78-8.79-14.98-17.87s8.83-15.76,17.87-14.98l.39.03c173.65,14.24,336.85,90.09,459.75,213.58,121.52,122.1,196.65,283.15,211.56,453.48.8,9.07-5.91,17.07-14.99,17.86-.49.04-.97.06-1.46.06Z"/>
  <g>
    <path class="cls-2" d="M270.07,738.46l-107.9-21.2,8.48-43.16c3.89-19.78,11.52-34.01,22.91-42.68s25.74-11.31,43.06-7.91c11.36,2.23,20.58,6.57,27.67,13.03,7.09,6.46,11.86,14.71,14.3,24.78,2.45,10.06,2.39,21.63-.18,34.69l-8.34,42.45ZM192.89,680.23l-2.57,13.06,62.76,12.33,2.56-13.06c4.37-22.24-3.9-35.42-24.82-39.53-20.92-4.11-33.56,4.96-37.93,27.2Z"/>
    <path class="cls-2" d="M297.96,620.52l-102.93-38.7,10.34-27.49,102.93,38.7-10.34,27.49Z"/>
    <path class="cls-2" d="M333.85,544.75c-2.36,4.32-5.08,8.46-8.18,12.43-3.1,3.97-6.27,7.46-9.51,10.47-3.23,3.02-6.3,5.27-9.21,6.76l-19.33-13.52c4.76-2.68,9.45-6.38,14.06-11.12,4.62-4.73,8.36-9.73,11.22-14.98,2.59-4.74,3.78-8.79,3.58-12.14-.21-3.35-1.79-5.84-4.75-7.46-1.78-.97-3.55-1.3-5.31-1-1.76.31-3.82,1.35-6.17,3.14-2.35,1.8-5.34,4.51-8.97,8.13-8.56,8.85-16.44,14.27-23.64,16.28-7.19,2-14.64.91-22.35-3.3-9.23-5.04-14.7-12.28-16.41-21.73-1.71-9.45.53-19.85,6.72-31.2,3-5.5,6.67-10.62,11.01-15.34s8.64-8.28,12.91-10.68l18.21,14.06c-4.05,2.19-8.02,5.33-11.9,9.42s-6.98,8.25-9.29,12.49c-4.8,8.8-4.37,14.76,1.3,17.85,2.46,1.34,4.96,1.39,7.5.14,2.55-1.25,6.13-4.18,10.74-8.81,9.59-9.71,18.09-15.79,25.52-18.22,7.42-2.43,14.99-1.55,22.69,2.66,9.74,5.31,15.44,12.85,17.09,22.6,1.66,9.75-.87,20.77-7.56,33.05Z"/>
    <path class="cls-2" d="M353.5,501.14l-56.69-103.62,19.4-23.2,112.02,37.47-19.68,23.53-25.12-9.88-25.62,30.63,14.17,22.98-18.48,22.09ZM345.69,436.51l16.34-19.54-37.8-15.02,21.47,34.55Z"/>
    <path class="cls-2" d="M437.33,405.5l-67.79-86.59,33.84-26.49c9.88-7.73,18.87-11.7,26.97-11.92,8.1-.21,15,3.32,20.71,10.61,3.15,4.03,5.04,8.37,5.68,13.01.63,4.65-.1,9.14-2.21,13.49,5.72-2.4,11.41-2.8,17.05-1.22,5.65,1.58,10.5,4.96,14.54,10.12,6.48,8.28,8.71,16.68,6.68,25.19-2.04,8.51-8.29,16.87-18.78,25.08l-36.68,28.72ZM413.87,309.57l-11.39,8.92,15.25,19.48,11.28-8.83c7.6-5.95,8.78-12.26,3.55-18.95-4.94-6.3-11.16-6.51-18.68-.63ZM443.72,342.07l-14.13,11.06,16.06,20.51,14.58-11.41c7.67-6.01,8.83-12.43,3.48-19.26-5.35-6.84-12.02-7.13-19.99-.89Z"/>
    <path class="cls-2" d="M519.99,345.12l-54.42-95.56,25.52-14.54,54.42,95.56-25.52,14.54Z"/>
    <path class="cls-2" d="M563.87,320.2l-40.95-102.06,27.26-10.94,32.17,80.17,43.24-17.35,8.78,21.89-70.5,28.29Z"/>
    <path class="cls-2" d="M648.76,289.15l-26.68-106.68,28.5-7.13,26.68,106.69-28.5,7.12Z"/>
    <path class="cls-2" d="M724.61,273.89l-8.25-85.99-33.56,3.22-2.25-23.48,96.36-9.25,2.25,23.48-33.56,3.22,8.25,85.99-29.24,2.81Z"/>
    <path class="cls-2" d="M831.88,271.58l4.83-44.45-32.36-69.16,32.07,3.49,17.43,45.85,26.87-41.03,31.22,3.39-46.61,60.57-4.84,44.45-28.62-3.11Z"/>
    <path class="cls-2" d="M903.36,250.41l5.25-20.61,44.87,11.44-5.26,20.61-44.87-11.44Z"/>
    <path class="cls-2" d="M1004.95,319.29c-7.89-3.62-14.56-8.23-20.01-13.8-5.46-5.58-9.53-11.8-12.21-18.66-2.69-6.86-3.91-14.08-3.67-21.66.24-7.58,2.11-15.19,5.62-22.82,3.38-7.37,7.89-13.6,13.52-18.71,5.63-5.1,11.98-8.88,19.05-11.32,7.06-2.44,14.49-3.46,22.27-3.07,7.78.39,15.53,2.36,23.25,5.89,7.89,3.62,14.56,8.23,20.01,13.8,5.45,5.58,9.52,11.8,12.21,18.66,2.69,6.86,3.91,14.08,3.67,21.66-.25,7.58-2.11,15.19-5.62,22.82-3.38,7.36-7.89,13.6-13.52,18.71-5.64,5.11-11.99,8.88-19.05,11.32-7.07,2.44-14.49,3.46-22.27,3.07-7.78-.39-15.53-2.36-23.25-5.89ZM1015.64,296.01c5.17,2.38,10.33,3.26,15.5,2.66,5.16-.6,9.88-2.55,14.15-5.85s7.67-7.7,10.21-13.22c2.58-5.61,3.72-11.11,3.43-16.5-.29-5.39-1.85-10.24-4.69-14.57-2.84-4.33-6.89-7.7-12.15-10.12-5.17-2.38-10.34-3.26-15.5-2.66-5.16.6-9.87,2.53-14.12,5.78-4.25,3.25-7.67,7.68-10.24,13.29-2.58,5.61-3.72,11.11-3.43,16.49.29,5.39,1.87,10.25,4.76,14.6,2.89,4.35,6.92,7.71,12.09,10.09Z"/>
    <path class="cls-2" d="M1085.78,360.25l45.44-105.3,23.66,19.74-34.45,66.61,61.52-42.14,19.12,15.94-29.36,67.27,58.29-45.03,23.56,19.65-95.44,63.59-20.34-16.96,29.23-67.57-60.78,41.25-20.45-17.05Z"/>
    <path class="cls-2" d="M1186.76,451.07l90.21-62.89,14.32,20.53-26.45,79.47,55.08-38.4,15.23,21.84-90.21,62.89-14.32-20.53,26.57-79.55-55.2,38.48-15.23-21.84Z"/>
    <path class="cls-2" d="M1253.09,552.06l101.23-42.96,29.9,70.47-20.38,8.65-19.44-45.82-19.45,8.25,17.12,40.36-20.38,8.65-17.12-40.36-20.65,8.76,20.23,47.68-20.38,8.65-30.69-72.33Z"/>
    <path class="cls-2" d="M1289.46,639.46l107.92-21.12,8.45,43.17c3.87,19.78,2.17,35.84-5.1,48.18-7.27,12.33-19.57,20.19-36.89,23.58-11.36,2.22-21.54,1.68-30.54-1.62-9-3.3-16.53-9.15-22.6-17.55-6.06-8.4-10.37-19.13-12.93-32.19l-8.31-42.46ZM1382.92,664.23l-2.56-13.06-62.76,12.28,2.56,13.06c4.35,22.24,16.99,31.32,37.91,27.23,20.92-4.09,29.2-17.26,24.85-39.51Z"/>
  </g>
  <g>
    <path class="cls-2" d="M276.55,1176.72l108.22-97.11,37.95,42.29c11.08,12.34,17.11,23.85,18.12,34.51,1,10.67-3.05,20.09-12.16,28.27-5.03,4.52-10.58,7.4-16.66,8.65s-12.07.68-17.99-1.72c3.66,7.34,4.71,14.8,3.12,22.39-1.59,7.59-5.61,14.29-12.06,20.08-10.35,9.29-21.23,12.97-32.64,11.04-11.41-1.93-23-9.44-34.75-22.54l-41.15-45.85ZM360.81,1179.52l-15.85-17.65-25.63,23,16.36,18.23c8.6,9.59,17.18,10.55,25.72,2.88,8.54-7.67,8.35-16.49-.6-26.45ZM401.03,1137.26l-12.78-14.24-24.35,21.85,12.65,14.1c8.52,9.49,16.96,10.49,25.31,3,7.88-7.07,7.6-15.31-.83-24.7Z"/>
    <path class="cls-2" d="M445.54,1333.38c-18.1-11.47-29-25.13-32.7-40.98-3.7-15.85.12-32.72,11.45-50.61l44.13-69.67,32.81,20.79-42.7,67.4c-12.42,19.61-10.71,34.43,5.13,44.47,15.84,10.03,29.97,5.25,42.39-14.37l42.7-67.4,32.81,20.78-44.12,69.67c-11.33,17.89-24.93,28.56-40.79,32.03-15.86,3.47-32.9-.57-51.11-12.1Z"/>
    <path class="cls-2" d="M597.22,1403.71c-6.22-1.9-12.31-4.34-18.27-7.3-5.97-2.96-11.33-6.13-16.1-9.53-4.76-3.39-8.5-6.77-11.2-10.13l12.36-28.63c4.73,5.45,10.78,10.54,18.14,15.25,7.36,4.72,14.82,8.24,22.38,10.55,6.83,2.09,12.39,2.56,16.68,1.4,4.28-1.16,7.09-3.87,8.39-8.14.79-2.56.74-4.94-.12-7.14-.86-2.19-2.77-4.58-5.72-7.15-2.95-2.57-7.25-5.72-12.91-9.45-13.74-8.73-22.86-17.5-27.38-26.28-4.51-8.78-5.07-18.72-1.68-29.82,4.07-13.29,11.99-22.31,23.78-27.04,11.78-4.73,25.85-4.6,42.19.4,7.93,2.42,15.53,5.82,22.8,10.18,7.27,4.36,13.02,8.99,17.26,13.88l-13.36,27.32c-3.91-4.66-9.03-8.97-15.36-12.9-6.33-3.94-12.55-6.84-18.65-8.7-12.69-3.88-20.27-1.73-22.77,6.44-1.08,3.54-.48,6.79,1.82,9.76,2.29,2.97,7.05,6.83,14.27,11.57,15.13,9.83,25.26,19.24,30.39,28.21,5.12,8.97,5.99,19.01,2.59,30.11-4.29,14.03-12.53,23.41-24.72,28.15-12.19,4.74-27.13,4.41-44.81-1Z"/>
    <path class="cls-2" d="M696.55,1423.46l16.51-144.46,38.59,4.41-16.51,144.47-38.59-4.41Z"/>
    <path class="cls-2" d="M786.64,1433.34l-14.38-144.7,32.94-3.27,74.65,81.8-8.78-88.34,35.03-3.48,14.38,144.69-32.94,3.27-74.67-81.98,8.8,88.53-35.03,3.48Z"/>
    <path class="cls-2" d="M975.23,1404.53l-52.74-135.51,94.32-36.71,10.62,27.28-61.34,23.87,10.13,26.03,54.02-21.03,10.62,27.28-54.02,21.03,10.75,27.63,63.83-24.84,10.62,27.28-96.81,37.68Z"/>
    <path class="cls-2" d="M1155.39,1318.83c-5.33,3.74-10.99,7.05-16.99,9.93-6,2.89-11.8,5.17-17.41,6.84-5.6,1.67-10.56,2.54-14.88,2.61l-14.98-27.35c7.21-.38,14.94-2.03,23.19-4.93,8.25-2.9,15.6-6.62,22.08-11.16,5.85-4.1,9.63-8.2,11.36-12.3,1.72-4.09,1.3-7.96-1.26-11.62-1.54-2.19-3.44-3.62-5.7-4.3s-5.31-.63-9.16.11c-3.84.75-8.97,2.21-15.4,4.38-15.33,5.46-27.85,7.27-37.55,5.43-9.71-1.84-17.89-7.51-24.56-17.01-7.98-11.38-10.22-23.17-6.71-35.38,3.51-12.2,12.27-23.21,26.26-33.03,6.78-4.76,14.14-8.67,22.04-11.72s15.09-4.75,21.56-5.08l13.34,27.34c-6.08.22-12.63,1.61-19.62,4.18-7,2.57-13.11,5.69-18.33,9.35-10.86,7.62-13.83,14.93-8.93,21.92,2.13,3.03,5.06,4.55,8.81,4.57,3.75.02,9.71-1.36,17.9-4.14,17.05-5.89,30.7-8.1,40.92-6.63s18.68,6.96,25.34,16.46c8.43,12.01,10.76,24.28,7.01,36.8-3.75,12.53-13.2,24.1-28.34,34.73Z"/>
    <path class="cls-2" d="M1267.99,1219.66c-4.32,4.86-9.07,9.39-14.24,13.58-5.18,4.19-10.29,7.75-15.36,10.66s-9.7,4.91-13.88,5.97l-20.88-23.16c6.92-2.04,14.07-5.41,21.42-10.14,7.36-4.72,13.66-10.04,18.91-15.95,4.75-5.34,7.49-10.2,8.22-14.58.74-4.38-.56-8.05-3.9-11.02-2-1.78-4.18-2.73-6.54-2.87-2.36-.13-5.32.61-8.88,2.22s-8.22,4.21-13.97,7.8c-13.66,8.85-25.43,13.49-35.3,13.94-9.87.45-19.14-3.18-27.82-10.89-10.39-9.24-15.28-20.19-14.67-32.88.61-12.68,6.59-25.42,17.94-38.19,5.51-6.2,11.76-11.7,18.75-16.49,6.99-4.79,13.59-8.1,19.81-9.91l19.28,23.53c-5.87,1.61-11.91,4.48-18.13,8.59-6.22,4.12-11.45,8.56-15.68,13.33-8.81,9.92-10.02,17.71-3.64,23.39,2.77,2.46,5.97,3.27,9.63,2.42,3.66-.85,9.14-3.56,16.46-8.15,15.24-9.66,28-14.96,38.3-15.88,10.29-.92,19.78,2.47,28.45,10.18,10.97,9.74,16.06,21.14,15.3,34.2-.76,13.06-7.3,26.5-19.58,40.32Z"/>
  </g>
  <circle class="cls-3" cx="239.11" cy="933.76" r="45.35"/>
  <circle class="cls-3" cx="1339.84" cy="933.76" r="45.35"/>
  <g>
    <path class="cls-3" d="M728.2,1209.85c-1.17,0-2.36-.09-3.55-.26-182.11-27.11-328.21-173.22-355.32-355.32-1.94-13.06,7.07-25.23,20.14-27.18,13.03-1.93,25.24,7.06,27.18,20.14,24.03,161.45,153.58,291.01,315.04,315.04,13.07,1.95,22.08,14.11,20.14,27.18-1.76,11.88-11.98,20.4-23.63,20.4Z"/>
    <path class="cls-3" d="M850.74,1209.85c-11.65,0-21.86-8.53-23.63-20.4-1.94-13.06,7.07-25.23,20.14-27.18,161.45-24.03,291.01-153.58,315.04-315.04,1.94-13.07,14.1-22.07,27.18-20.13,13.07,1.95,22.08,14.11,20.14,27.18-27.12,182.1-173.22,328.21-355.32,355.31-1.19.18-2.38.26-3.55.26Z"/>
    <path class="cls-3" d="M1185.92,752.11c-11.65,0-21.86-8.53-23.63-20.4-24.04-161.46-153.59-291.01-315.04-315.04-13.07-1.95-22.08-14.11-20.14-27.18,1.94-13.08,14.13-22.08,27.18-20.14,182.1,27.1,328.2,173.21,355.32,355.31,1.94,13.07-7.07,25.24-20.14,27.18-1.19.18-2.38.26-3.55.26Z"/>
    <path class="cls-3" d="M393.03,752.11c-1.17,0-2.36-.09-3.55-.26-13.07-1.95-22.08-14.11-20.14-27.18,27.11-182.1,173.21-328.21,355.32-355.31,13.01-1.93,25.24,7.06,27.18,20.14,1.94,13.06-7.07,25.23-20.14,27.18-161.46,24.03-291.01,153.57-315.04,315.03-1.76,11.88-11.98,20.4-23.63,20.4Z"/>
  </g>
  <g>
    <ellipse class="cls-3" cx="535.27" cy="724.83" rx="35.47" ry="35.5"/>
    <ellipse class="cls-3" cx="535.27" cy="854.11" rx="35.47" ry="35.5"/>
  </g>
  <g>
    <path class="cls-3" d="M662.88,963.05c19.39,0,35.11-15.73,35.11-35.14v-276.88c0-19.41-15.72-35.14-35.11-35.14s-35.11,15.73-35.11,35.14v276.88c0,19.41,15.72,35.14,35.11,35.14Z"/>
    <path class="cls-3" d="M1055.27,651.01v196.1c0,8.56-10.8,12.32-16.12,5.61l-52.19-65.93c-1.26-1.6-1.95-3.57-1.95-5.61v-128.22c0-19.02,14.29-36.03,33.28-36.97,20.27-1,36.98,15.1,36.98,35.04Z"/>
    <path class="cls-3" d="M835.86,797.77v128.22c0,19.02-14.29,36.03-33.28,36.97-20.27,1-36.98-15.1-36.98-35.04v-196.1c0-8.56,10.8-12.32,16.12-5.61l52.2,65.93c1.26,1.6,1.95,3.57,1.95,5.61Z"/>
    <path class="cls-3" d="M1055.27,927.93c0,1.17-.11,2.45-.21,3.61-.11.85-.21,1.59-.43,2.44-.11,1.06-.42,2.13-.64,3.19-.21.53-.32,1.06-.53,1.59-.11.74-.42,1.49-.74,2.23-.53,1.28-1.17,2.55-1.81,3.83-1.06,1.91-2.23,3.72-3.72,5.42-1.38,1.7-2.98,3.3-4.78,4.68-.74.74-1.59,1.28-2.44,1.91-3.93,2.76-8.29,4.57-12.76,5.42-1.17.32-2.34.42-3.51.53-1.17.11-2.34.21-3.51.21-2.66,0-5.32-.32-7.97-.96-1.17-.21-2.23-.53-3.3-.96-2.34-.74-4.57-1.7-6.59-2.98-.64-.32-1.28-.74-1.81-1.17-1.91-1.17-3.61-2.66-5.21-4.25-.85-.74-1.59-1.59-2.23-2.44-.42-.43-.85-.85-1.17-1.38l-156.05-196.98-63.36-79.94c-4.68-6.27-6.91-13.61-6.91-20.94,0-1.17.11-2.44.21-3.61.11-.85.21-1.59.43-2.45.21-1.59.64-3.19,1.17-4.78.21-.74.42-1.49.74-2.23.53-1.28,1.17-2.55,1.81-3.83,1.59-2.76,3.51-5.42,5.74-7.65.85-.85,1.81-1.7,2.76-2.44.42-.43.85-.85,1.38-1.17.32-.21.64-.53,1.06-.74,3.93-2.76,8.29-4.57,12.76-5.42,1.17-.32,2.34-.43,3.51-.53,1.17-.11,2.34-.21,3.51-.21,2.66,0,5.32.32,7.97.96,1.17.21,2.34.53,3.4.96,2.13.64,4.15,1.59,6.06,2.76.74.32,1.49.85,2.23,1.38,2.76,1.81,5.32,4.04,7.44,6.8.42.42.85.85,1.17,1.38l156.05,196.87,63.36,79.94c4.68,6.27,6.91,13.61,6.91,20.94Z"/>
  </g>
</svg>